<?xml version="1.0" standalone="no"?>
<!DOCTYPE svg PUBLIC "-//W3C//DTD SVG 20010904//EN"
 "http://www.w3.org/TR/2001/REC-SVG-20010904/DTD/svg10.dtd">
<svg version="1.0" xmlns="http://www.w3.org/2000/svg"
 width="1024.000000pt" height="1024.000000pt" viewBox="0 0 1024.000000 1024.000000"
 preserveAspectRatio="xMidYMid meet">

<g transform="translate(0.000000,1024.000000) scale(0.100000,-0.100000)"
fill="#000000" stroke="none">
<path d="M5010 9652 c-30 -10 -137 -69 -238 -130 -409 -250 -689 -401 -997
-537 -568 -251 -1228 -437 -2010 -564 -200 -33 -231 -40 -282 -67 -70 -37
-139 -110 -176 -184 l-32 -65 -3 -1415 c-4 -1659 -1 -1722 83 -2145 129 -647
414 -1272 836 -1835 161 -215 284 -356 489 -560 497 -497 1167 -956 1965
-1350 268 -132 349 -166 432 -181 108 -20 186 5 511 166 1044 515 1869 1148
2413 1850 519 669 822 1384 929 2194 37 278 40 433 40 1831 0 1486 1 1440 -56
1537 -35 60 -99 120 -165 153 -45 23 -104 37 -300 70 -321 54 -505 91 -724
145 -825 203 -1524 500 -2244 953 -193 121 -247 145 -340 149 -54 2 -92 -2
-131 -15z m173 -786 c18 -7 82 -46 142 -86 556 -369 1219 -659 1979 -865 289
-79 544 -131 894 -186 l73 -11 -4 -1316 c-4 -1432 -2 -1380 -62 -1693 -111
-572 -358 -1111 -729 -1589 -140 -179 -243 -294 -417 -465 -449 -440 -1048
-854 -1716 -1189 -223 -111 -214 -111 -411 -12 -1056 529 -1839 1177 -2349
1941 -344 516 -554 1126 -603 1754 -12 156 -14 2571 -2 2571 4 0 79 11 167 25
737 116 1397 318 2058 632 268 127 441 222 691 381 204 129 223 136 289 108z"/>
<path d="M6993 6921 c-28 -9 -69 -30 -90 -45 -21 -16 -564 -557 -1208 -1202
l-1170 -1174 -545 540 c-619 613 -608 604 -749 605 -103 0 -167 -24 -236 -87
-69 -63 -100 -115 -115 -193 -15 -75 -2 -156 36 -224 17 -33 245 -267 727
-749 794 -793 750 -756 902 -757 63 0 90 5 130 24 41 19 302 275 1401 1375
1314 1314 1352 1353 1374 1411 88 242 -91 496 -349 495 -31 -1 -79 -9 -108
-19z"/>
</g>
</svg>
